<svg width="154" height="154" viewBox="0 0 154 154" fill="none" xmlns="http://www.w3.org/2000/svg">
<path fill-rule="evenodd" clip-rule="evenodd" d="M76.6658 88.1052C84.7934 88.1052 92.5882 84.8765 98.3353 79.1294C104.082 73.3823 107.311 65.5875 107.311 57.4599C107.311 49.3323 104.082 41.5375 98.3353 35.7904C92.5882 30.0433 84.7934 26.8146 76.6658 26.8146C68.5381 26.8146 60.7434 30.0433 54.9963 35.7904C49.2492 41.5375 46.0205 49.3323 46.0205 57.4599C46.0205 65.5875 49.2492 73.3823 54.9963 79.1294C60.7434 84.8765 68.5381 88.1052 76.6658 88.1052ZM76.6658 80.4439C79.6841 80.4439 82.6728 79.8494 85.4614 78.6943C88.2499 77.5393 90.7836 75.8463 92.9179 73.712C95.0522 71.5778 96.7451 69.044 97.9002 66.2555C99.0552 63.4669 99.6497 60.4782 99.6497 57.4599C99.6497 54.4416 99.0552 51.4529 97.9002 48.6643C96.7451 45.8758 95.0522 43.3421 92.9179 41.2078C90.7836 39.0735 88.2499 37.3806 85.4614 36.2255C82.6728 35.0705 79.6841 34.476 76.6658 34.476C70.5701 34.476 64.724 36.8975 60.4137 41.2078C56.1033 45.5181 53.6818 51.3642 53.6818 57.4599C53.6818 63.5556 56.1033 69.4017 60.4137 73.712C64.724 78.0224 70.5701 80.4439 76.6658 80.4439Z" fill="white"/>
<path fill-rule="evenodd" clip-rule="evenodd" d="M153.279 76.6132C153.279 118.927 118.979 153.226 76.6659 153.226C34.3525 153.226 0.0527344 118.927 0.0527344 76.6132C0.0527344 34.2997 34.3525 0 76.6659 0C118.979 0 153.279 34.2997 153.279 76.6132ZM113.555 134.878C102.528 141.881 89.7294 145.589 76.6659 145.565C63.2906 145.589 50.2002 141.701 39.0067 134.38C38.0874 133.23 37.1552 132.043 36.2103 130.817C35.1144 129.381 34.5232 127.624 34.5287 125.818C34.5287 121.692 37.4936 118.233 41.4583 117.655C67.6792 113.824 85.7331 114.154 111.988 117.789C113.889 118.067 115.625 119.022 116.877 120.478C118.129 121.934 118.813 123.794 118.803 125.715C118.803 127.553 118.171 129.338 117.03 130.733C115.852 132.165 114.694 133.547 113.555 134.878ZM126.407 124.366C125.794 117.195 120.351 111.212 113.038 110.2C86.1621 106.481 67.3766 106.125 40.3513 110.074C32.9964 111.147 27.576 117.184 26.9325 124.374C14.5798 111.545 7.68971 94.4222 7.71405 76.6132C7.71405 38.5326 38.5853 7.66132 76.6659 7.66132C114.747 7.66132 145.618 38.5326 145.618 76.6132C145.642 94.4185 138.755 111.538 126.407 124.366Z" fill="white"/>
<path d="M115.386 138.333H117.486L118.886 137H123.086L124.486 138.333H126.586C126.958 138.333 127.314 138.474 127.576 138.724C127.839 138.974 127.986 139.313 127.986 139.667V147.667C127.986 148.02 127.839 148.359 127.576 148.609C127.314 148.86 126.958 149 126.586 149H115.386C115.015 149 114.659 148.86 114.396 148.609C114.134 148.359 113.986 148.02 113.986 147.667V139.667C113.986 139.313 114.134 138.974 114.396 138.724C114.659 138.474 115.015 138.333 115.386 138.333ZM120.986 140.333C120.058 140.333 119.168 140.685 118.511 141.31C117.855 141.935 117.486 142.783 117.486 143.667C117.486 144.551 117.855 145.399 118.511 146.024C119.168 146.649 120.058 147 120.986 147C121.915 147 122.805 146.649 123.461 146.024C124.118 145.399 124.486 144.551 124.486 143.667C124.486 142.783 124.118 141.935 123.461 141.31C122.805 140.685 121.915 140.333 120.986 140.333ZM120.986 141.667C121.543 141.667 122.077 141.877 122.471 142.252C122.865 142.628 123.086 143.136 123.086 143.667C123.086 144.197 122.865 144.706 122.471 145.081C122.077 145.456 121.543 145.667 120.986 145.667C120.429 145.667 119.895 145.456 119.501 145.081C119.108 144.706 118.886 144.197 118.886 143.667C118.886 143.136 119.108 142.628 119.501 142.252C119.895 141.877 120.429 141.667 120.986 141.667Z" fill="white"/>
</svg>
