<svg width="25" height="25" viewBox="0 0 25 25" fill="none" xmlns="http://www.w3.org/2000/svg">
<path d="M4.8112 16.6678C5.06259 16.8174 5.27844 17.0121 5.45069 17.2371H8.70585V14.0806L7.16235 13.1236C6.81858 12.9105 6.71268 12.459 6.9258 12.1153C7.13896 11.7716 7.59024 11.6657 7.93415 11.8787L9.43821 12.8112L10.7492 11.9984C8.13433 8.41283 8.73485 3.33221 12.2155 0.464604C6.48209 -1.45611 0.467662 2.8135 0.440516 8.94559C0.426357 12.1976 2.15769 15.0882 4.8112 16.6678Z" fill="#BF0644"/>
<path d="M5.90918 18.7018H12.8421V20.3618H5.90918V18.7018Z" fill="#BF0644"/>
<path d="M10.1709 14.0806V17.237H13.2902C13.4558 17.0185 13.6625 16.8312 13.9029 16.6896C14.5686 16.2978 15.1797 15.8199 15.7213 15.273C14.1914 14.9285 12.8175 14.1677 11.725 13.1163C11.6833 13.1434 11.3831 13.3291 10.1709 14.0806Z" fill="#BF0644"/>
<path d="M17.5775 0.00219727C13.7372 0.00219727 10.5957 3.17558 10.5957 7.03278C10.5957 10.661 13.3808 13.6653 16.952 13.9859C21.0847 14.3552 24.5592 11.0791 24.5592 7.03278C24.5592 3.18305 21.4273 0.00219727 17.5775 0.00219727ZM18.3108 10.2071V10.3602C18.3108 10.7646 17.9829 11.0925 17.5784 11.0925C17.174 11.0925 16.8461 10.7646 16.8461 10.3602V10.2899C16.5087 10.2307 16.2004 10.1045 15.8109 9.84966C15.4724 9.62824 15.3776 9.17438 15.599 8.83589C15.8204 8.49734 16.2743 8.40253 16.6128 8.62389C16.9698 8.85746 17.0854 8.87568 17.5735 8.87231C18.0446 8.86918 18.2323 8.49934 18.269 8.28135C18.3019 8.08561 18.265 7.82539 17.902 7.69713C17.294 7.48216 16.6704 7.2355 16.2287 6.88905C15.2229 6.10016 15.5265 4.29833 16.8461 3.81883V3.71278C16.8461 3.30833 17.174 2.98043 17.5785 2.98043C17.983 2.98043 18.3108 3.30833 18.3108 3.71278V3.75341C18.6717 3.85525 18.9623 4.03946 19.1619 4.24247C19.4456 4.53082 19.4417 4.9945 19.1533 5.27812C18.865 5.56159 18.4017 5.55783 18.1181 5.26996C18.0773 5.23007 17.8517 5.04196 17.3632 5.18906C17.1682 5.2478 17.1158 5.45002 17.1044 5.51061C17.0806 5.63707 17.1145 5.72231 17.1327 5.73657C17.4089 5.95325 17.9234 6.15113 18.3902 6.31615C20.3204 6.99841 20.0852 9.5656 18.3108 10.2071Z" fill="#BF0644"/>
<path d="M7.08008 22.7052C7.08008 23.9705 8.10947 24.9999 9.37478 24.9999C10.6401 24.9999 11.6695 23.9705 11.6695 22.7052V21.8264H7.08008V22.7052Z" fill="#BF0644"/>
</svg>
