<svg width="25" height="25" viewBox="0 0 25 25" fill="none" xmlns="http://www.w3.org/2000/svg">
<g clip-path="url(#clip0_123_4825)">
<path d="M22.6633 18.2383C23.2031 17.1187 23.468 15.8864 23.4359 14.6438C23.4039 13.4012 23.0758 12.1842 22.4789 11.0939C21.882 10.0036 21.0336 9.07148 20.0042 8.37491C18.9747 7.67834 17.7939 7.23746 16.5598 7.0889C16.1492 6.13418 15.5522 5.27098 14.8038 4.54986C14.0554 3.82873 13.1707 3.26418 12.2014 2.88925C11.2321 2.51432 10.1977 2.33656 9.15886 2.36637C8.12001 2.39619 7.09754 2.63297 6.15134 3.06287C5.20514 3.49277 4.35423 4.10713 3.64842 4.86998C2.94262 5.63284 2.39612 6.52885 2.04092 7.50555C1.68572 8.48225 1.52896 9.52 1.57983 10.558C1.6307 11.5961 1.88816 12.6135 2.33715 13.5508L1.62719 15.9639C1.54781 16.2333 1.5425 16.5191 1.61183 16.7912C1.68115 17.0634 1.82254 17.3118 2.02112 17.5104C2.2197 17.709 2.46814 17.8504 2.74029 17.9197C3.01243 17.989 3.29823 17.9837 3.56762 17.9043L5.98071 17.1944C6.75555 17.5666 7.58626 17.8091 8.43969 17.9121C8.85432 18.8836 9.46164 19.761 10.2249 20.4911C10.9883 21.2212 11.8917 21.7889 12.8806 22.16C13.8696 22.5311 14.9235 22.6977 15.9787 22.6499C17.0339 22.6021 18.0684 22.3408 19.0198 21.8819L21.4329 22.5918C21.7021 22.6711 21.9878 22.6764 22.2598 22.6071C22.5319 22.5378 22.7802 22.3965 22.9788 22.1981C23.1773 21.9996 23.3187 21.7514 23.3881 21.4794C23.4576 21.2074 23.4524 20.9217 23.3733 20.6524L22.6633 18.2383ZM21.0764 18.3819L21.8752 21.0938L19.1643 20.2959C18.9684 20.2392 18.7582 20.2613 18.5784 20.3575C17.1397 21.1256 15.4579 21.3016 13.8915 20.8477C12.325 20.3938 10.9978 19.3461 10.1926 17.9278C11.2623 17.8161 12.2974 17.4846 13.233 16.9541C14.1685 16.4235 14.9843 15.7053 15.6292 14.8446C16.2741 13.9839 16.7341 12.9991 16.9805 11.9522C17.2268 10.9053 17.2542 9.81876 17.0608 8.76078C17.9928 8.98047 18.8619 9.41138 19.6009 10.0203C20.34 10.6291 20.9293 11.3997 21.3233 12.2724C21.7173 13.1452 21.9055 14.0968 21.8733 15.0538C21.8412 16.0108 21.5896 16.9477 21.1379 17.792C21.0407 17.9729 21.0186 18.1848 21.0764 18.3819Z" fill="#B1B1B1"/>
</g>
<defs>
<clipPath id="clip0_123_4825">
<rect width="25" height="25" fill="white"/>
</clipPath>
</defs>
</svg>
