<svg width="20" height="21" viewBox="0 0 20 21" fill="none" xmlns="http://www.w3.org/2000/svg">
<path d="M3.5 5.08105C3.10218 5.08105 2.72064 4.92302 2.43934 4.64172C2.15804 4.36041 2 3.97888 2 3.58105C2 3.18323 2.15804 2.8017 2.43934 2.52039C2.72064 2.23909 3.10218 2.08105 3.5 2.08105C3.89782 2.08105 4.27936 2.23909 4.56066 2.52039C4.84196 2.8017 5 3.18323 5 3.58105C5 3.97888 4.84196 4.36041 4.56066 4.64172C4.27936 4.92302 3.89782 5.08105 3.5 5.08105ZM19.41 9.66105L10.41 0.661055C10.05 0.301055 9.55 0.0810547 9 0.0810547H2C0.89 0.0810547 0 0.971055 0 2.08105V9.08105C0 9.63105 0.22 10.1311 0.59 10.4911L9.58 19.4911C9.95 19.8511 10.45 20.0811 11 20.0811C11.55 20.0811 12.05 19.8511 12.41 19.4911L19.41 12.4911C19.78 12.1311 20 11.6311 20 11.0811C20 10.5211 19.77 10.0211 19.41 9.66105Z" fill="#B1B1B1"/>
</svg>
