<svg width="20" height="23" viewBox="0 0 20 23" fill="none" xmlns="http://www.w3.org/2000/svg">
<path d="M10 21.2974V11.2974M9 21.0274C9.30404 21.2029 9.64893 21.2953 10 21.2953C10.3511 21.2953 10.696 21.2029 11 21.0274L18 17.0274C18.3037 16.852 18.556 16.5999 18.7315 16.2962C18.9071 15.9926 18.9996 15.6481 19 15.2974V7.29739C18.9996 6.94666 18.9071 6.6022 18.7315 6.29855C18.556 5.9949 18.3037 5.74275 18 5.56739L11 1.56739C10.696 1.39185 10.3511 1.29944 10 1.29944C9.64893 1.29944 9.30404 1.39185 9 1.56739L2 5.56739C1.69626 5.74275 1.44398 5.9949 1.26846 6.29855C1.09294 6.6022 1.00036 6.94666 1 7.29739V15.2974C1.00036 15.6481 1.09294 15.9926 1.26846 16.2962C1.44398 16.5999 1.69626 16.852 2 17.0274L9 21.0274Z" stroke="#BF0644" stroke-width="2" stroke-linecap="round" stroke-linejoin="round"/>
<path d="M1.29004 6.29738L10 11.2974L18.71 6.29738M5.50004 3.56738L14.5 8.71738" stroke="#BF0644" stroke-width="2" stroke-linecap="round" stroke-linejoin="round"/>
</svg>
