<svg width="28" height="26" viewBox="0 0 28 26" fill="none" xmlns="http://www.w3.org/2000/svg">
<path fill-rule="evenodd" clip-rule="evenodd" d="M13.6406 -1.96484C14.0384 -1.96484 14.42 -1.80681 14.7013 -1.5255C14.9826 -1.2442 15.1406 -0.862668 15.1406 -0.464844V1.61516C18.5745 1.9852 21.7504 3.61149 24.0578 6.18139C26.3652 8.75128 27.6413 12.0834 27.6406 15.5372C27.6406 16.3328 27.3246 17.0959 26.7619 17.6585C26.1993 18.2211 25.4363 18.5372 24.6406 18.5372H2.64062C1.84498 18.5372 1.08191 18.2211 0.519305 17.6585C-0.0433045 17.0959 -0.359375 16.3328 -0.359375 15.5372C-0.35952 12.0837 0.916737 8.75212 3.22409 6.18264C5.53145 3.61317 8.70709 1.98717 12.1406 1.61716V-0.462844C12.1404 -0.659995 12.179 -0.855264 12.2542 -1.03748C12.3295 -1.2197 12.4399 -1.3853 12.5793 -1.5248C12.7186 -1.6643 12.884 -1.77496 13.0661 -1.85047C13.2483 -1.92598 13.4435 -1.96484 13.6406 -1.96484ZM1.20062 21.3292C0.8028 21.3292 0.421269 21.4872 0.139965 21.7685C-0.14134 22.0498 -0.299375 22.4313 -0.299375 22.8292C-0.299375 23.227 -0.14134 23.6085 0.139965 23.8898C0.421269 24.1711 0.8028 24.3292 1.20062 24.3292H26.0806C26.4785 24.3292 26.86 24.1711 27.1413 23.8898C27.4226 23.6085 27.5806 23.227 27.5806 22.8292C27.5806 22.4313 27.4226 22.0498 27.1413 21.7685C26.86 21.4872 26.4785 21.3292 26.0806 21.3292H1.20062Z" fill="#9E033B"/>
</svg>
