<svg width="25" height="22" viewBox="0 0 25 22" fill="none" xmlns="http://www.w3.org/2000/svg">
<g clip-path="url(#clip0_123_4836)">
<path d="M25.325 9.7016C25.3244 9.70111 25.3238 9.70061 25.3233 9.70012L15.1253 0.880539C14.6906 0.504431 14.1126 0.297241 13.4979 0.297241C12.8832 0.297241 12.3052 0.504266 11.8704 0.880374L1.67768 9.6955C1.67425 9.69847 1.67082 9.7016 1.66738 9.70457C0.774745 10.481 0.776271 11.7408 1.67177 12.5153C2.0809 12.8693 2.62125 13.0744 3.19898 13.0958C3.22245 13.0978 3.2461 13.0988 3.26994 13.0988H3.67639V19.5895C3.67639 20.8738 4.8847 21.9189 6.37014 21.9189H10.3599C10.7643 21.9189 11.0924 21.6353 11.0924 21.2854V16.1967C11.0924 15.6106 11.6436 15.1339 12.3213 15.1339H14.6745C15.3522 15.1339 15.9035 15.6106 15.9035 16.1967V21.2854C15.9035 21.6353 16.2313 21.9189 16.6359 21.9189H20.6257C22.1111 21.9189 23.3194 20.8738 23.3194 19.5895V13.0988H23.6963C24.3109 13.0988 24.8888 12.8918 25.3238 12.5157C26.2203 11.7398 26.2207 10.4779 25.325 9.7016Z" fill="#B1B1B1"/>
</g>
<defs>
<clipPath id="clip0_123_4836">
<rect width="25" height="21.6216" fill="white" transform="translate(0 0.297241)"/>
</clipPath>
</defs>
</svg>
