<svg width="26" height="25" viewBox="0 0 26 25" fill="none" xmlns="http://www.w3.org/2000/svg">
<g clip-path="url(#clip0_123_4804)">
<path d="M10.4852 20.8333H11.8861V15.2778C12.4698 15.2778 12.9662 15.0755 13.3752 14.6708C13.7843 14.2662 13.9883 13.7741 13.9874 13.1944V9.02778H12.5865V13.1944H11.8861V9.02778H10.4852V13.1944H9.78482V9.02778H8.38396V13.1944C8.38396 13.7731 8.58848 14.2653 8.99753 14.6708C9.40659 15.0764 9.90249 15.2787 10.4852 15.2778V20.8333ZM16.0887 20.8333H17.4896V9.02778C16.7191 9.02778 16.0597 9.3 15.5115 9.84444C14.9633 10.3889 14.6888 11.0426 14.6878 11.8056V15.9722H16.0887V20.8333ZM2.08008 25V8.33333L13.287 0L24.4939 8.33333V25H2.08008Z" fill="#B1B1B1"/>
</g>
<defs>
<clipPath id="clip0_123_4804">
<rect width="26" height="25" fill="white"/>
</clipPath>
</defs>
</svg>
