<svg width="10" height="10" viewBox="0 0 10 10" fill="none" xmlns="http://www.w3.org/2000/svg">
<path d="M8.42 2.63158H7.11L4.25 1.05263L1 2.84737V7.89474C0.734784 7.89474 0.48043 7.78383 0.292893 7.58643C0.105357 7.38902 0 7.12128 0 6.84211V2.72105C0 2.36842 0.14 2.13684 0.405 2.00526L4.25 0L8.025 2.00526C8.25 2.15263 8.39 2.36842 8.42 2.63158ZM2.5 3.15789H9C9.26522 3.15789 9.51957 3.2688 9.70711 3.4662C9.89464 3.66361 10 3.93135 10 4.21053V8.94737C10 9.22654 9.89464 9.49428 9.70711 9.69169C9.51957 9.8891 9.26522 10 9 10H2.5C2.23478 10 1.98043 9.8891 1.79289 9.69169C1.60536 9.49428 1.5 9.22654 1.5 8.94737V4.21053C1.5 3.93135 1.60536 3.66361 1.79289 3.4662C1.98043 3.2688 2.23478 3.15789 2.5 3.15789ZM9 5.08947V4.21053L5.75 5.95263L2.5 4.21053V5.08947L5.75 6.84211L9 5.08947Z" fill="#1E1500" fill-opacity="0.99"/>
</svg>
