<svg width="21" height="20" viewBox="0 0 21 20" fill="none" xmlns="http://www.w3.org/2000/svg">
<path d="M20.09 5.77005L20.04 12.07C20.0408 12.6912 19.9185 13.3064 19.68 13.88C19.4438 14.452 19.0969 14.9718 18.6593 15.4094C18.2217 15.8469 17.702 16.1938 17.13 16.43C16.5564 16.6685 15.9412 16.7908 15.32 16.7901H12.99L10.99 18.7901C10.8656 18.9193 10.7158 19.0215 10.55 19.09C10.3777 19.1697 10.1899 19.2107 10 19.21C9.81114 19.2109 9.62405 19.1734 9.45002 19.1C9.27581 19.0225 9.11928 18.9102 8.99002 18.7701L7.04002 16.83H4.71002C4.09065 16.8301 3.47736 16.7079 2.90527 16.4706C2.33317 16.2332 1.8135 15.8854 1.376 15.447C0.93851 15.0086 0.591782 14.4882 0.355672 13.9156C0.119561 13.343 -0.00129652 12.7294 1.84854e-05 12.11V5.51005C-0.00172101 4.88981 0.119322 4.27535 0.356171 3.70211C0.593019 3.12887 0.940988 2.60818 1.38002 2.17005C2.2674 1.29311 3.46246 0.797858 4.71002 0.79005H15.37C15.9902 0.788732 16.6046 0.909918 17.1778 1.14665C17.7511 1.38339 18.2719 1.73101 18.7105 2.16957C19.1491 2.60812 19.4967 3.12897 19.7334 3.70223C19.9701 4.27548 20.0913 4.88984 20.09 5.51005V5.77005Z" fill="#ED004F"/>
</svg>
