<svg width="23" height="23" viewBox="0 0 23 23" fill="none" xmlns="http://www.w3.org/2000/svg">
<path fill-rule="evenodd" clip-rule="evenodd" d="M12.917 4.41667C12.917 2.16152 11.0888 0.333374 8.83364 0.333374L8.60959 0.33939C6.45862 0.45571 4.75029 2.23672 4.75029 4.41667C4.75029 6.67187 6.57849 8.50002 8.83364 8.50002L9.0577 8.49395C11.2087 8.37769 12.917 6.59668 12.917 4.41667ZM10.0003 17.8334C10.0003 19.1084 10.3412 20.3038 10.9368 21.3334H0.666992V17.1334C0.666992 13.7409 3.27384 10.9748 6.5395 10.8386L6.79194 10.8334H10.8753C11.9381 10.8334 12.9377 11.1118 13.8088 11.6016C11.5476 12.762 10.0003 15.117 10.0003 17.8334ZM13.5715 22.5526L17.0003 20.4584L20.429 22.5526L19.4968 18.6445L22.5481 16.0308L18.5432 15.7097L17.0003 12L15.4573 15.7097L11.4525 16.0308L14.5037 18.6445L13.5715 22.5526Z" fill="#ED004F"/>
</svg>
