<svg width="30" height="28" viewBox="0 0 30 28" fill="none" xmlns="http://www.w3.org/2000/svg">
<path d="M15.5461 27.22C13.1491 27.22 11.1973 25.3628 11.1973 23.0793C11.1973 22.6222 11.5869 22.2512 12.067 22.2512C12.5471 22.2512 12.9368 22.6222 12.9368 23.0793C12.9368 24.4497 14.1081 25.5637 15.5461 25.5637C16.9841 25.5637 18.1554 24.4497 18.1554 23.0793C18.1554 22.6222 18.545 22.2512 19.0252 22.2512C19.5053 22.2512 19.8949 22.6222 19.8949 23.0793C19.8949 25.3628 17.9433 27.22 15.5461 27.22Z" fill="#CC054D" fill-opacity="0.99"/>
<path d="M25.1642 23.875H6.02938C4.91032 23.875 4 23.0083 4 21.9428C4 21.3773 4.25864 20.8419 4.70966 20.4741C4.73875 20.4499 4.76996 20.4278 4.80245 20.4078C6.50482 18.9934 7.47906 16.9585 7.47906 14.8097V11.7291C7.47906 7.46717 11.1216 4 15.5968 4C15.7824 4 15.9831 4.00323 16.1687 4.03316C16.6428 4.10817 16.963 4.53557 16.884 4.98603C16.8053 5.43648 16.3483 5.74137 15.8833 5.66616C15.7905 5.6518 15.6885 5.65625 15.5968 5.65625C12.0808 5.65625 9.2186 8.38021 9.2186 11.7291V14.8097C9.2186 17.4775 7.99039 20.0017 5.85207 21.7339C5.83466 21.7473 5.81959 21.7594 5.8009 21.7715C5.76969 21.8091 5.73953 21.8666 5.73953 21.9428C5.73953 22.0928 5.87182 22.2188 6.02938 22.2188H25.1642C25.322 22.2188 25.4543 22.0928 25.4543 21.9428C25.4543 21.8653 25.4241 21.8091 25.3917 21.7715C25.3742 21.7594 25.3592 21.7473 25.3418 21.7339C23.2022 20.0004 21.9752 17.4775 21.9752 14.8097V13.6063C21.9752 13.1492 22.3649 12.7782 22.845 12.7782C23.3251 12.7782 23.7148 13.1492 23.7148 13.6063V14.8097C23.7148 16.9597 24.6901 18.9956 26.3948 20.4113C26.426 20.4311 26.4561 20.4521 26.484 20.4754C26.9352 20.8419 27.1938 21.3773 27.1938 21.9428C27.1938 23.0083 26.2835 23.875 25.1642 23.875Z" fill="#CC054D" fill-opacity="0.99"/>
<path d="M23.6637 11.7616C20.4665 11.7616 17.8652 9.28508 17.8652 6.24087C17.8652 3.19666 20.4665 0.719971 23.6637 0.719971C26.861 0.719971 29.462 3.19666 29.462 6.24087C29.462 9.28508 26.861 11.7616 23.6637 11.7616ZM23.6637 2.37622C21.4254 2.37622 19.6048 4.1097 19.6048 6.24087C19.6048 8.37184 21.4254 10.1053 23.6637 10.1053C25.9019 10.1053 27.7225 8.37184 27.7225 6.24087C27.7225 4.1097 25.9019 2.37622 23.6637 2.37622Z" fill="#9E033B" fill-opacity="0.99"/>
<path d="M7.94593 8.94633C8.33339 8.55984 8.64067 8.10059 8.85011 7.59498C9.05955 7.08937 9.16702 6.54736 9.16634 6.00008C9.16702 5.45281 9.05955 4.9108 8.85011 4.40519C8.64067 3.89957 8.33339 3.44033 7.94593 3.05383M2.05343 3.05383C1.66596 3.44033 1.35868 3.89957 1.14924 4.40519C0.939805 4.9108 0.832336 5.45281 0.833011 6.00008C0.832336 6.54736 0.939805 7.08937 1.14924 7.59498C1.35868 8.10059 1.66596 8.55984 2.05343 8.94633M3.14551 3.93758C2.87431 4.20817 2.65924 4.52967 2.51266 4.88362C2.36607 5.23756 2.29086 5.61698 2.29134 6.00008C2.29086 6.38318 2.36607 6.7626 2.51266 7.11655C2.65924 7.4705 2.87431 7.792 3.14551 8.06258M6.85384 8.06258C7.12504 7.792 7.34011 7.4705 7.4867 7.11655C7.63328 6.7626 7.70849 6.38318 7.70801 6.00008C7.70849 5.61698 7.63328 5.23756 7.4867 4.88362C7.34011 4.52967 7.12504 4.20817 6.85384 3.93758" stroke="#9E033B" stroke-opacity="0.99" stroke-width="0.5" stroke-linecap="round"/>
<path d="M5 10.1667V8.08337M5 1.83337V3.91671" stroke="#ED004F" stroke-width="0.5" stroke-linecap="round" stroke-linejoin="round"/>
<path d="M5 6.625C5.16576 6.625 5.32473 6.55915 5.44194 6.44194C5.55915 6.32473 5.625 6.16576 5.625 6C5.625 5.83424 5.55915 5.67527 5.44194 5.55806C5.32473 5.44085 5.16576 5.375 5 5.375C4.83424 5.375 4.67527 5.44085 4.55806 5.55806C4.44085 5.67527 4.375 5.83424 4.375 6C4.375 6.16576 4.44085 6.32473 4.55806 6.44194C4.67527 6.55915 4.83424 6.625 5 6.625Z" fill="#ED004F"/>
</svg>
