<svg width="19" height="23" viewBox="0 0 19 23" fill="none" xmlns="http://www.w3.org/2000/svg">
<path d="M6.00521 20.3542C6.23024 21.1062 6.69184 21.7655 7.32144 22.2343C7.95104 22.7031 8.71505 22.9563 9.5 22.9563C10.2849 22.9563 11.049 22.7031 11.6786 22.2343C12.3082 21.7655 12.7698 21.1062 12.9948 20.3542H6.00521ZM0.125 19.3125H18.875V16.1875L16.7917 13.0625V7.85417C16.7917 6.89661 16.6031 5.94843 16.2366 5.06377C15.8702 4.1791 15.3331 3.37527 14.656 2.69818C13.9789 2.02109 13.1751 1.48399 12.2904 1.11755C11.4057 0.751104 10.4576 0.5625 9.5 0.5625C8.54244 0.5625 7.59426 0.751104 6.7096 1.11755C5.82493 1.48399 5.02111 2.02109 4.34401 2.69818C3.66692 3.37527 3.12982 4.1791 2.76338 5.06377C2.39694 5.94843 2.20833 6.89661 2.20833 7.85417V13.0625L0.125 16.1875V19.3125Z" fill="#B1B1B1"/>
</svg>
