<svg width="23" height="17" viewBox="0 0 23 17" fill="none" xmlns="http://www.w3.org/2000/svg">
<path d="M22.9587 4.33329V14.75C22.9587 15.8958 22.0212 16.8333 20.8753 16.8333H4.20866C3.63574 16.8333 3.16699 16.3645 3.16699 15.7916C3.16699 15.2187 3.63574 14.75 4.20866 14.75H20.8753V4.33329C20.8753 3.76038 21.3441 3.29163 21.917 3.29163C22.4899 3.29163 22.9587 3.76038 22.9587 4.33329ZM3.16699 12.6666C1.43783 12.6666 0.0419922 11.2708 0.0419922 9.54163V3.29163C0.0419922 1.56246 1.43783 0.166626 3.16699 0.166626H15.667C17.3962 0.166626 18.792 1.56246 18.792 3.29163V10.5833C18.792 11.7291 17.8545 12.6666 16.7087 12.6666H3.16699ZM6.29199 6.41663C6.29199 8.14579 7.68783 9.54163 9.41699 9.54163C11.1462 9.54163 12.542 8.14579 12.542 6.41663C12.542 4.68746 11.1462 3.29163 9.41699 3.29163C7.68783 3.29163 6.29199 4.68746 6.29199 6.41663Z" fill="#BF0644"/>
</svg>
